<svg width="670" height="349" viewBox="0 0 670 349" fill="none" xmlns="http://www.w3.org/2000/svg">
  <path
    d="M200.726 294.775V234.688H238.171V180.261H200.726V4.35414H115.385L0 185.922V234.688H138.897V294.775H200.726ZM138.897 180.261H60.5225L138.897 59.2163V180.261Z"
    class="svg_primaryColor"/>
  <path
    d="M383.895 300C466.624 300 504.07 224.673 504.07 149.782C504.07 74.8912 466.624 0 383.895 0C300.731 0 263.721 74.8912 263.721 149.782C263.721 224.673 300.731 300 383.895 300ZM383.895 245.138C342.096 245.138 326.421 203.338 326.421 149.782C326.421 96.2264 342.096 54.8621 383.895 54.8621C425.26 54.8621 440.935 96.2264 440.935 149.782C440.935 203.338 425.26 245.138 383.895 245.138Z"
    class="svg_primaryColor"/>
  <path d="M669.142 294.775V4.35414H615.151L523.714 96.2264L558.983 133.237L607.314 84.0348V294.775H669.142Z"
        class="svg_primaryColor"/>
  <path
    d="M316.605 302.394C319.754 302.78 322.958 303.167 326.106 303.554C326.438 306.26 326.824 309.906 327.322 314.27C330.304 340.397 330.36 342.883 329.586 343.104C328.371 343.491 324.67 337.801 314.396 312.557C315.169 309.188 315.887 305.818 316.605 302.394Z"
    class="svg_primaryColor"/>
  <path
    d="M266.394 269.859C264.13 269.803 262.141 269.803 257.832 269.748C246.453 269.582 243.581 269.361 237.615 269.472C230.545 269.638 226.899 269.693 223.254 270.632C219.497 271.571 214.636 272.897 210.383 277.095C208.947 278.531 206.075 281.458 205.08 286.209C204.196 290.462 205.301 293.942 205.854 295.71C208.063 302.283 212.924 305.874 215.078 307.42C218.227 309.63 220.989 310.624 223.695 311.618C227.617 312.999 230.987 313.607 235.516 314.159C244.575 315.264 251.812 315.485 254.408 315.54C263.356 315.761 270.592 315.595 275.177 315.43C285.672 315.043 294.234 314.325 305.889 313.386C309.48 313.11 312.463 312.834 314.451 312.613C314.783 311.066 315.169 309.519 315.501 307.973C315.888 306.095 316.274 304.272 316.661 302.449C312.849 301.455 308.983 300.516 305.171 299.521C308.928 298.361 312.684 297.257 316.44 296.097C317.766 294.716 320.969 290.959 321.908 285.159C323.068 278.144 320.251 272.786 319.368 271.295C288.931 270.3 274.072 269.969 266.394 269.859Z"
    fill="white"/>
  <path
    d="M266.394 269.638C258.937 269.527 251.48 269.417 243.968 269.361C237.45 269.251 230.766 268.975 224.303 270.19C214.636 272.068 204.252 278.918 204.528 289.855C204.804 300.571 213.752 308.359 223.253 311.618C229.219 313.662 235.627 314.436 241.869 314.988C249.049 315.595 256.286 315.816 263.522 315.816C280.535 315.761 297.493 314.27 314.451 312.778C314.727 312.778 314.727 312.336 314.451 312.336C288.213 314.656 261.368 317.363 235.13 313.828C223.53 312.281 210.714 307.917 206.185 295.986C201.545 283.778 211.101 273.78 222.48 270.963C229.495 269.251 236.787 269.582 243.968 269.693C251.425 269.803 258.882 269.914 266.394 269.969C266.615 270.079 266.615 269.638 266.394 269.638Z"
    fill="#0E0E0E"/>
  <path
    d="M245.404 283.723C269.046 290.352 292.743 296.649 316.55 302.615C316.826 302.67 316.937 302.283 316.661 302.228C292.853 296.262 269.156 289.965 245.514 283.337C245.238 283.281 245.128 283.668 245.404 283.723Z"
    fill="#0E0E0E"/>
  <path
    d="M316.495 303.333C315.501 306.039 314.948 308.856 314.893 311.729C314.893 312.005 315.28 312.005 315.335 311.729C315.39 308.856 315.943 306.095 316.882 303.443C316.992 303.167 316.605 303.056 316.495 303.333Z"
    fill="#0E0E0E"/>
  <path
    d="M316.826 313.441C316.661 312.889 316.661 312.336 316.771 311.784C316.826 311.453 317.158 310.458 317.545 310.293C318.428 309.906 317.986 311.563 317.931 311.729C317.71 312.392 317.268 312.889 316.716 313.276C316.495 313.441 316.716 313.773 316.937 313.607C317.71 313.11 318.263 312.336 318.484 311.397C318.594 310.9 318.76 309.906 318.152 309.63C317.489 309.298 316.882 310.403 316.661 310.9C316.274 311.729 316.219 312.668 316.44 313.552C316.495 313.773 316.937 313.662 316.826 313.441Z"
    fill="white"/>
  <path
    d="M316.605 313.717C315.722 313.883 314.948 314.38 314.506 315.154C314.175 315.651 313.678 316.811 314.341 317.253C315.004 317.695 315.777 316.976 316.163 316.535C316.826 315.706 317.103 314.656 316.937 313.607C316.882 313.331 316.495 313.331 316.495 313.607C316.55 314.215 316.55 314.767 316.329 315.319C316.219 315.596 316.053 315.872 315.887 316.148C315.777 316.314 315.666 316.424 315.556 316.535C315.224 316.811 315.224 316.866 314.783 316.645C314.396 316.424 314.396 316.479 314.506 316.093C314.562 315.927 314.617 315.816 314.672 315.706C314.783 315.43 314.948 315.154 315.169 314.933C315.611 314.491 316.108 314.215 316.716 314.104C316.992 314.049 316.882 313.662 316.605 313.717Z"
    fill="white"/>
  <path
    d="M317.379 319.02C317.268 317.971 318.042 316.976 319.146 316.921C319.423 316.921 319.423 316.479 319.146 316.479C317.876 316.535 316.826 317.695 316.992 319.02C316.992 319.296 317.434 319.296 317.379 319.02Z"
    fill="white"/>
  <path
    d="M318.373 321.672C318.428 320.733 319.091 319.959 320.03 319.738C320.306 319.683 320.196 319.296 319.92 319.352C318.815 319.573 317.987 320.512 317.931 321.672C317.931 321.948 318.373 321.948 318.373 321.672Z"
    fill="white"/>
  <path
    d="M319.588 324.378C319.478 323.495 320.362 322.611 321.245 322.721C321.522 322.776 321.632 322.39 321.356 322.335C320.141 322.114 318.981 323.274 319.202 324.489C319.257 324.765 319.643 324.655 319.588 324.378Z"
    fill="white"/>
  <path
    d="M321.135 327.914C321.19 327.195 321.577 326.588 322.185 326.256C322.406 326.146 322.185 325.759 321.964 325.925C321.19 326.312 320.748 327.085 320.693 327.914C320.748 328.135 321.135 328.135 321.135 327.914Z"
    fill="white"/>
  <path
    d="M324.394 304.106C325.388 313.441 326.548 322.721 327.764 332.001C327.819 332.277 328.205 332.277 328.205 332.001C326.935 322.721 325.83 313.441 324.836 304.106C324.781 303.83 324.394 303.83 324.394 304.106Z"
    fill="white"/>
  <path
    d="M254.629 191.807C254.297 193.962 254.021 196.226 253.855 198.712C253.524 204.236 253.855 209.207 254.463 213.35C254.905 216.885 255.568 221.415 256.451 226.662C256.728 228.32 257.998 235.666 260.263 245.885C261.754 252.459 263.743 260.634 266.394 269.914C267.554 270.687 269.322 271.737 271.531 272.786C279.099 276.321 285.728 276.763 290.257 276.984C299.758 277.481 307.049 275.658 309.811 274.83C314.893 273.394 318.925 271.46 321.798 269.914C322.24 267.152 322.792 263.727 323.4 259.971C325.444 247.321 327.211 236.771 328.758 227.491C330.084 219.702 332.017 208.71 334.503 195.232C332.625 194.238 330.084 193.023 326.99 191.752C325.112 190.979 318.594 188.493 309.369 186.946C298.708 185.179 290.367 185.676 285.617 185.952C278.049 186.449 272.249 187.609 268.549 188.327C262.969 189.377 258.219 190.703 254.629 191.807Z"
    fill="white"/>
  <path
    d="M254.684 191.973C280.756 184.24 309.59 182.417 334.392 195.287C334.613 195.398 334.834 195.066 334.613 194.956C309.701 182.03 280.756 183.853 254.573 191.586C254.297 191.697 254.408 192.084 254.684 191.973Z"
    fill="#0E0E0E"/>
  <path
    d="M253.689 208.821C256.065 229.314 260.263 249.531 266.284 269.306C266.339 269.582 266.781 269.472 266.67 269.196C260.649 249.476 256.451 229.314 254.076 208.821C254.076 208.6 253.689 208.6 253.689 208.821Z"
    fill="#0E0E0E"/>
  <path
    d="M331.52 209.263C328.316 228.706 325.112 248.205 321.853 267.649C321.798 267.925 322.185 268.036 322.24 267.759C325.444 248.316 328.647 228.817 331.906 209.373C331.962 209.097 331.575 208.986 331.52 209.263Z"
    fill="#0E0E0E"/>
  <path
    d="M267.167 270.963C284.291 279.58 305.061 279.249 321.853 270.024C322.074 269.914 321.853 269.527 321.632 269.693C304.95 278.807 284.346 279.194 267.333 270.632C267.112 270.466 266.946 270.798 267.167 270.963Z"
    fill="#0E0E0E"/>
  <path
    d="M307.988 261.352C307.602 260.634 307.049 259.584 306.11 258.48C304.287 256.38 302.299 255.386 301.802 255.165C301.415 255 299.813 254.281 297.493 254.06C295.947 253.95 294.621 253.84 293.129 254.502C292.632 254.723 291.251 255.386 290.478 256.933C289.373 259.142 290.423 261.407 290.588 261.683C291.251 261.407 292.246 261.076 293.461 260.855C294.952 260.579 296.278 260.302 297.714 260.634C298.929 260.91 299.758 261.518 301.415 262.733C303.238 264.114 303.569 264.721 305.171 265.937C306.055 266.655 307.381 267.594 309.259 268.478C309.646 268.422 309.977 268.367 310.364 268.257C309.59 265.992 308.762 263.672 307.988 261.352Z"
    fill="white"/>
  <path
    d="M335.828 195.84C335.386 195.619 334.945 195.398 334.503 195.177C331.354 196.061 328.979 197.386 327.211 198.602C315.943 206.501 315.832 221.857 315.832 224.232C318.705 227.933 321.632 232.021 324.56 236.55C326.604 239.754 328.482 242.847 330.194 245.885C327.045 248.205 323.786 250.58 320.472 252.9C316.274 255.883 312.076 258.7 307.988 261.462C307.988 262.291 308.099 263.396 308.486 264.611C308.983 266.323 309.811 267.594 310.364 268.367C315.004 267.594 318.87 266.82 321.853 266.158C325.775 265.274 328.813 264.611 332.845 263.396C337.375 262.015 340.468 260.744 341.131 260.468C344.611 259.032 346.986 258.093 349.748 256.159C352.565 254.226 354.554 252.238 355.769 250.857C355.548 249.697 355.272 248.04 354.83 246.106C354.223 243.289 353.504 240.14 351.903 234.451C350.466 229.314 349.472 225.834 347.87 221.083C345.937 215.394 344.777 211.969 342.678 207.55C340.247 202.579 337.762 198.657 335.828 195.84Z"
    fill="white"/>
  <path
    d="M335.662 195.95C341.186 203.518 344.721 212.19 347.649 221.028C350.742 230.308 353.283 239.754 355.382 249.31C355.438 249.586 355.824 249.476 355.769 249.2C353.615 239.312 350.963 229.59 347.76 219.979C344.887 211.417 341.407 203.021 336.049 195.729C335.828 195.508 335.497 195.729 335.662 195.95Z"
    fill="#0E0E0E"/>
  <path
    d="M315.722 224.342C320.748 230.805 325.278 237.6 329.2 244.781C329.31 245.001 329.697 244.78 329.531 244.56C325.554 237.379 321.08 230.529 315.998 224.011C315.832 223.79 315.556 224.122 315.722 224.342Z"
    fill="#0E0E0E"/>
  <path
    d="M308.099 261.573C312.131 258.811 316.164 256.049 320.196 253.287C323.621 250.912 327.211 248.702 330.36 245.996C330.581 245.83 330.249 245.554 330.084 245.72C326.714 248.647 322.792 251.078 319.146 253.563C315.39 256.104 311.689 258.7 307.933 261.241C307.657 261.352 307.878 261.683 308.099 261.573Z"
    fill="#0E0E0E"/>
  <path
    d="M307.823 261.573C307.878 263.561 308.375 265.439 309.369 267.207C309.48 267.428 309.867 267.207 309.701 266.986C308.762 265.329 308.265 263.506 308.209 261.573C308.209 261.352 307.823 261.352 307.823 261.573Z"
    fill="#0E0E0E"/>
  <path
    d="M310.419 268.533C318.981 266.986 327.598 265.384 335.884 262.622C342.623 260.358 351.019 257.375 355.438 251.464C355.604 251.243 355.217 251.022 355.106 251.243C352.51 254.723 348.478 256.767 344.666 258.645C340.91 260.468 337.044 261.904 333.066 263.064C325.665 265.329 317.987 266.71 310.364 268.091C310.032 268.146 310.143 268.588 310.419 268.533Z"
    fill="#0E0E0E"/>
  <path
    d="M309.369 268.312C303.293 265.163 298.819 257.54 291.251 261.241C291.03 261.352 291.196 261.739 291.472 261.573C298.709 258.038 303.404 265.605 309.204 268.643C309.425 268.809 309.646 268.478 309.369 268.312Z"
    fill="#0E0E0E"/>
  <path
    d="M290.644 261.241C291.804 258.977 294.842 258.259 297.162 257.927C297.438 257.872 297.327 257.485 297.051 257.54C294.621 257.927 291.472 258.7 290.257 261.076C290.146 261.297 290.533 261.518 290.644 261.241Z"
    fill="#0E0E0E"/>
  <path
    d="M290.312 259.142C292.245 257.209 294.786 256.27 297.493 256.491C297.769 256.491 297.769 256.104 297.493 256.049C294.676 255.828 291.969 256.822 289.981 258.866C289.815 259.032 290.091 259.308 290.312 259.142Z"
    fill="#0E0E0E"/>
  <path
    d="M290.644 257.154C292.964 255.497 295.726 255.055 298.432 255.883C298.708 255.939 298.819 255.552 298.543 255.497C295.726 254.613 292.853 255.11 290.423 256.822C290.202 256.933 290.423 257.32 290.644 257.154Z"
    fill="#0E0E0E"/>
  <path
    d="M293.24 254.779C299.206 253.287 305.005 255.939 307.767 261.518C307.878 261.739 308.265 261.573 308.099 261.297C305.282 255.607 299.261 252.845 293.129 254.392C292.853 254.392 292.964 254.834 293.24 254.779Z"
    fill="#0E0E0E"/>
  <path
    d="M275.232 270.632C275.73 270.687 276.448 270.742 277.331 270.577C278.547 270.356 279.486 269.803 280.425 269.196C282.91 267.373 282.8 266.268 285.341 264.114C286.998 262.733 288.434 262.015 288.876 261.794C291.251 260.689 293.35 260.468 294.013 260.468C295.615 260.358 296.941 260.579 297.825 260.744C297.88 260.247 297.99 259.529 298.046 258.7C298.156 257.043 298.156 256.16 297.714 255.497C297.549 255.22 296.996 254.558 295.56 254.337C294.124 254.005 292.19 253.784 289.981 254.226C287.44 254.779 285.728 255.994 284.347 256.988C282.91 258.038 282.469 258.645 280.093 260.8C278.27 262.512 276.779 263.782 275.84 264.611C275.564 264.777 274.514 265.55 274.183 266.986C273.686 268.975 275.122 270.521 275.232 270.632Z"
    fill="white"/>
  <path
    d="M255.954 191.421C255.015 191.642 253.634 192.139 252.253 193.244C251.038 194.183 250.32 195.122 249.547 196.337C247.116 200.093 246.011 202.855 246.011 202.855C242.697 211.196 248.552 195.177 240.929 214.786C237.063 224.784 235.074 229.866 234.025 233.236C232.644 237.544 231.429 241.411 230.49 246.824C229.716 251.188 229.33 254.944 229.164 257.651C230.324 258.59 232.147 259.971 234.522 261.352C238.333 263.561 241.648 264.666 245.79 265.992C249.989 267.318 253.248 268.091 254.076 268.257C258.771 269.306 266.063 270.466 275.508 270.411C275.343 269.582 275.177 268.036 275.785 266.268C276.061 265.384 276.447 264.721 276.834 264.169C275.674 263.617 273.962 262.788 271.973 261.683C268.107 259.529 265.621 257.706 262.804 255.662C260.263 253.84 256.507 251.243 251.811 248.15C252.088 247.211 252.474 245.885 253.027 244.339C254.076 241.411 255.236 239.312 256.23 237.434C258.385 233.512 259.876 230.695 262.472 226.718C264.461 223.624 267.057 219.813 270.371 215.56C270.979 213.682 272.139 209.152 270.482 204.015C267.168 194.404 256.728 191.586 255.954 191.421Z"
    fill="white"/>
  <path
    d="M253.248 191.973C249.547 195.343 247.171 199.651 245.183 204.181C242.808 209.483 240.598 214.897 238.444 220.31C233.97 231.634 230.213 243.344 228.943 255.497C228.888 255.773 229.33 255.773 229.385 255.497C230.6 243.676 234.19 232.407 238.499 221.36C240.598 215.946 242.863 210.533 245.183 205.175C247.282 200.424 249.657 195.784 253.579 192.249C253.745 192.084 253.469 191.752 253.248 191.973Z"
    fill="#0E0E0E"/>
  <path
    d="M266.891 220.089C260.373 228.541 255.181 237.876 251.314 247.819C251.204 248.095 251.646 248.15 251.701 247.929C255.567 237.986 260.76 228.762 267.223 220.31C267.388 220.089 267.057 219.868 266.891 220.089Z"
    fill="#0E0E0E"/>
  <path
    d="M251.425 248.261C258.716 253.398 266.118 258.369 273.63 263.175C273.851 263.34 274.072 262.954 273.851 262.843C266.339 258.038 258.937 253.066 251.646 247.929C251.425 247.763 251.259 248.15 251.425 248.261Z"
    fill="#0E0E0E"/>
  <path
    d="M230.655 258.7C235.848 263.727 244.023 265.937 250.872 267.704C258.827 269.803 267.002 270.798 275.177 270.798C275.453 270.798 275.453 270.411 275.177 270.356C267.333 270.356 259.545 269.417 251.977 267.539C244.907 265.771 236.345 263.561 230.932 258.369C230.766 258.259 230.49 258.535 230.655 258.7Z"
    fill="#0E0E0E"/>
  <path
    d="M276.337 264.114C275.343 266.158 275.011 268.312 275.343 270.577C275.398 270.853 275.785 270.742 275.729 270.466C275.398 268.312 275.729 266.268 276.668 264.279C276.779 264.114 276.448 263.893 276.337 264.114Z"
    fill="#0E0E0E"/>
  <path
    d="M275.398 270.632C279.099 271.295 281.308 268.643 283.573 266.102C287.164 262.07 291.914 260.026 297.327 260.744C297.604 260.8 297.604 260.358 297.327 260.302C293.847 259.86 290.368 260.468 287.329 262.236C283.408 264.556 280.756 271.129 275.508 270.19C275.232 270.19 275.122 270.632 275.398 270.632Z"
    fill="#0E0E0E"/>
  <path
    d="M276.889 264.39C279.485 261.904 281.971 259.253 284.678 256.878C287.992 254.005 291.914 254.06 296.057 254.558C296.333 254.613 296.333 254.171 296.057 254.116C292.577 253.729 288.821 253.453 285.783 255.497C282.413 257.761 279.541 261.241 276.613 264.059C276.392 264.28 276.724 264.556 276.889 264.39Z"
    fill="#0E0E0E"/>
  <path
    d="M287.661 259.916C290.92 258.314 294.455 257.927 297.935 258.866C298.211 258.921 298.322 258.535 298.046 258.48C294.4 257.54 290.809 257.927 287.44 259.584C287.219 259.695 287.44 260.026 287.661 259.916Z"
    fill="#0E0E0E"/>
  <path
    d="M287.716 258.093C290.975 256.767 294.4 256.38 297.88 256.933C298.156 256.988 298.266 256.601 297.99 256.546C294.4 255.994 290.92 256.38 287.605 257.706C287.384 257.817 287.495 258.203 287.716 258.093Z"
    fill="#0E0E0E"/>
  <path
    d="M289.318 255.939C290.754 255.773 292.19 255.607 293.627 255.552C295.007 255.497 296.83 255.276 298.046 256.049C298.267 256.215 298.487 255.828 298.267 255.718C297.272 255.055 296.112 255.11 294.952 255.165C293.074 255.165 291.196 255.331 289.318 255.607C289.042 255.552 289.042 255.994 289.318 255.939Z"
    fill="#0E0E0E"/>
  <path
    d="M287.495 326.422C285.23 329.957 282.966 333.437 280.646 336.973C310.474 347.357 326.107 351.003 327.543 347.965C328.703 345.479 320.583 338.63 303.128 327.416C301.802 326.643 299.261 325.373 295.836 325.096C291.97 324.71 288.931 325.759 287.495 326.422Z"
    class="svg_primaryColor"/>
  <path
    d="M285.838 326.533C287.992 323.163 291.031 318.413 294.731 312.834C297.493 308.636 300.255 304.437 303.79 299.19C311.192 288.363 315.004 282.784 320.693 276.045C324.008 272.123 326.99 268.975 330.581 265.826C335.331 261.573 338.922 259.308 341.849 257.761C344.501 256.325 346.545 255.276 349.583 254.779C351.847 254.392 355.769 253.729 359.746 255.828C360.63 256.27 364.331 258.203 365.712 262.401C366.983 266.158 365.657 269.472 364.497 272.399C363.226 275.659 361.514 278.089 358.366 281.79C355.935 284.607 351.958 289.026 343.451 296.704C341.131 298.803 337.927 301.676 333.508 305.321C327.211 310.458 324.063 313.055 319.368 316.148C314.893 319.076 311.469 320.788 305.448 325.373C304.122 326.367 303.072 327.195 302.354 327.803C300.918 327.251 299.15 326.698 297.217 326.367C292.522 325.428 288.49 325.925 285.838 326.533Z"
    fill="white"/>
  <path
    d="M287.274 325.207C294.4 313.22 302.189 301.676 310.253 290.241C317.6 279.746 325.554 269.306 336.05 261.683C341.297 257.872 347.65 254.116 354.389 254.558C361.956 255.055 367.369 261.131 365.602 268.754C364.055 275.382 359.194 280.906 354.609 285.657C350.08 290.407 345.274 294.881 340.358 299.245C328.979 309.298 316.716 318.247 303.735 326.146C303.514 326.256 303.735 326.643 303.956 326.477C316.551 318.855 328.482 310.182 339.585 300.516C345.109 295.655 350.522 290.628 355.604 285.27C360.023 280.63 364.552 275.217 366.099 268.864C367.259 263.948 365.768 259.253 361.459 256.436C356.432 253.121 350.19 253.84 344.888 256.104C333.011 261.241 323.676 271.681 315.998 281.79C305.393 295.544 295.781 310.127 286.943 324.986C286.777 325.207 287.164 325.428 287.274 325.207Z"
    fill="#0E0E0E"/>
  <path
    d="M287.551 326.588C292.577 325.815 297.493 326.256 302.299 327.858C302.575 327.969 302.686 327.527 302.41 327.472C297.549 325.815 292.577 325.373 287.44 326.201C287.164 326.256 287.274 326.643 287.551 326.588Z"
    fill="#0E0E0E"/>
  <path
    d="M302.907 328.135C301.415 328.19 300.034 328.908 299.316 330.289C298.985 330.896 298.598 332.222 299.537 332.554C300.587 332.885 302.023 331.117 302.465 330.399C303.072 329.46 303.735 327.195 304.895 326.809C306.221 327.14 306.608 327.582 306.055 328.024C305.779 328.3 305.503 328.521 305.227 328.742C304.564 329.184 303.901 329.405 303.128 329.571C302.851 329.626 302.962 330.013 303.238 329.957C304.509 329.681 306.552 328.853 306.994 327.472C307.326 326.533 306.442 325.98 305.613 326.091C304.011 326.256 303.293 328.024 302.63 329.239C302.354 329.792 300.145 333.272 299.316 331.504C299.095 331.007 300.034 329.847 300.366 329.515C301.084 328.853 301.912 328.576 302.851 328.521C303.183 328.576 303.183 328.135 302.907 328.135Z"
    fill="white"/>
  <path
    d="M304.674 332.609C305.503 331.725 306.608 331.173 307.823 331.007C308.099 330.952 308.099 330.565 307.823 330.565C306.497 330.731 305.337 331.283 304.398 332.277C304.233 332.498 304.509 332.83 304.674 332.609Z"
    fill="white"/>
  <path
    d="M306.884 334.1C307.602 332.995 308.762 332.277 310.088 332.167C310.364 332.167 310.364 331.725 310.088 331.725C308.596 331.891 307.326 332.609 306.497 333.879C306.387 334.1 306.773 334.321 306.884 334.1Z"
    fill="white"/>
  <path
    d="M309.314 335.592C310.143 334.763 311.248 334.211 312.408 334.1C312.684 334.1 312.684 333.658 312.408 333.658C311.082 333.769 309.922 334.321 308.983 335.26C308.817 335.481 309.093 335.757 309.314 335.592Z"
    fill="white"/>
  <path
    d="M311.745 337.249C312.684 336.365 313.899 336.034 315.17 336.144C315.446 336.199 315.446 335.757 315.17 335.702C313.789 335.536 312.463 335.978 311.413 336.917C311.248 337.138 311.579 337.414 311.745 337.249Z"
    fill="white"/>
  <path
    d="M315.777 339.348C316.827 338.74 317.932 338.354 319.147 338.243C319.423 338.188 319.423 337.801 319.147 337.801C317.876 337.967 316.716 338.354 315.612 338.961C315.335 339.127 315.556 339.514 315.777 339.348Z"
    fill="white"/>
  <path
    d="M283.518 335.481C294.621 339.127 305.668 342.773 316.771 346.418C317.047 346.529 317.158 346.087 316.882 346.032C305.779 342.386 294.731 338.74 283.629 335.094C283.352 334.984 283.297 335.371 283.518 335.481Z"
    fill="white"/>
  <path
    d="M300.642 179.765C300.144 178.937 298.708 176.838 295.891 175.678C293.626 174.739 291.693 174.96 290.92 175.015C288.213 175.291 286.335 176.562 285.506 177.224C284.402 178.108 283.684 178.992 283.242 179.655C282.689 179.71 281.75 179.821 280.701 179.434C278.436 178.605 277.497 176.396 277.221 175.623C277 175.125 276.226 172.916 277.11 170.375C277.939 167.945 279.817 166.729 280.866 166.066C284.567 163.691 288.545 164.188 289.815 164.354C290.92 164.52 293.847 165.072 296.609 167.282C297.438 167.945 298.929 169.16 299.924 171.204C301.802 174.849 300.973 178.55 300.642 179.765Z"
    fill="#0E0E0E"/>
  <path
    d="M283.242 179.655C283.187 180.484 283.187 181.588 283.463 182.859C283.629 183.687 283.905 185.068 284.789 186.56C285.286 187.388 286.28 189.045 288.379 190.15C289.76 190.868 291.086 191.034 291.859 191.089C292.025 191.365 292.191 191.697 292.411 191.973C291.804 192.084 291.141 192.249 290.533 192.36C290.423 192.636 290.202 193.354 290.478 194.183C290.865 195.343 291.97 195.784 292.191 195.84C293.627 196.392 295.063 195.729 295.781 195.343C297.991 194.238 298.874 192.194 299.151 191.476C299.316 190.979 299.427 190.537 299.482 190.205C299.095 189.487 298.709 188.714 298.377 187.996C298.764 187.609 299.261 187.057 299.648 186.173C299.979 185.51 300.09 184.958 300.2 184.626C300.697 182.472 300.476 179.434 300.421 178.826C299.758 178.053 298.322 176.506 295.947 175.623C292.688 174.352 289.815 175.125 289.042 175.402C285.507 176.451 283.739 178.937 283.242 179.655Z"
    fill="white"/>
  <path
    d="M282.91 179.876C283.076 184.847 285.507 190.703 291.196 191.255C295.615 191.697 300.531 187.775 300.366 183.245C300.366 182.969 299.924 182.969 299.924 183.245C300.089 188.162 294.234 191.918 289.76 190.537C285.175 189.156 283.518 184.184 283.352 179.876C283.352 179.6 282.91 179.6 282.91 179.876Z"
    fill="#0E0E0E"/>
  <path
    d="M291.693 191.255C292.08 191.863 292.466 192.525 292.743 193.244C292.853 193.464 293.24 193.354 293.129 193.133C292.853 192.415 292.466 191.697 292.08 191.034C291.914 190.813 291.527 191.034 291.693 191.255Z"
    fill="#0E0E0E"/>
  <path
    d="M290.312 192.36C289.428 194.901 291.859 196.668 294.179 196.226C296.886 195.729 299.15 192.912 299.592 190.316C299.647 190.04 299.261 189.929 299.206 190.205C298.874 192.139 297.659 193.851 296.057 194.956C294.013 196.392 289.428 196.061 290.699 192.47C290.809 192.194 290.367 192.084 290.312 192.36Z"
    fill="#0E0E0E"/>
  <path
    d="M289.76 178.716C288.931 180.76 287.882 185.565 290.754 186.504C291.03 186.615 291.141 186.173 290.865 186.118C288.268 185.234 289.484 180.539 290.146 178.826C290.257 178.605 289.815 178.495 289.76 178.716Z"
    fill="#0E0E0E"/>
  <path
    d="M283.021 179.489C277.663 179.71 275.343 173.745 277.718 169.491C279.651 166.066 283.739 164.409 287.55 164.409C291.306 164.354 295.228 165.956 297.824 168.663C300.752 171.645 300.752 175.457 300.476 179.379C300.476 179.655 300.863 179.655 300.918 179.379C301.304 174.573 300.918 170.375 296.885 167.226C293.019 164.244 287.771 163.084 283.076 164.796C279.375 166.122 276.282 169.381 276.337 173.468C276.392 177.169 279.375 180.097 283.076 179.931C283.297 179.876 283.297 179.489 283.021 179.489Z"
    fill="#0E0E0E"/>
  <path
    d="M283.408 179.765C287.716 173.91 295.947 173.8 300.476 179.434C300.642 179.655 300.918 179.324 300.752 179.158C296.002 173.247 287.495 173.524 283.021 179.6C282.91 179.765 283.242 179.986 283.408 179.765Z"
    fill="#0E0E0E"/>
  <path
    d="M293.682 181.036C293.956 181.036 294.179 180.517 294.179 179.876C294.179 179.235 293.956 178.716 293.682 178.716C293.407 178.716 293.185 179.235 293.185 179.876C293.185 180.517 293.407 181.036 293.682 181.036Z"
    fill="#0E0E0E"/>
  <path fill-rule="evenodd" clip-rule="evenodd"
        d="M581.824 226.645L587.88 224.102L585.469 218.361L579.481 220.875C579.305 219.098 579.564 217.298 580.243 215.633C581.065 213.619 582.467 211.894 584.269 210.676C586.072 209.458 588.196 208.802 590.371 208.791C592.547 208.78 594.677 209.415 596.492 210.614C598.307 211.814 599.725 213.525 600.568 215.531C601.697 218.22 601.712 221.247 600.61 223.947C599.508 226.648 597.378 228.799 594.69 229.93C592.684 230.773 590.474 231.003 588.338 230.589C586.202 230.176 584.236 229.139 582.69 227.608C582.382 227.303 582.093 226.982 581.824 226.645ZM576.954 228.69C577.564 229.614 578.271 230.477 579.065 231.264C581.335 233.512 584.22 235.036 587.355 235.645C590.491 236.253 593.736 235.919 596.682 234.683C598.64 233.862 600.417 232.662 601.912 231.153C603.406 229.645 604.588 227.856 605.39 225.89C606.193 223.923 606.6 221.818 606.588 219.695C606.576 217.571 606.145 215.471 605.321 213.514C604.081 210.57 601.996 208.06 599.33 206.301C596.664 204.542 593.536 203.613 590.342 203.631C587.148 203.649 584.031 204.613 581.385 206.402C578.739 208.191 576.682 210.725 575.475 213.682C574.28 216.612 573.971 219.828 574.587 222.93L419.899 287.892L412.917 271.268L406.306 274.045L410.813 284.776L406.142 286.737L401.633 276.001L395.022 278.777L399.531 289.513L394.304 291.709L389.796 280.974L377.505 286.136L384.489 302.765L384.491 302.764L386.901 308.503L576.954 228.69Z"
        fill="white"/>
  <path d="M386.927 308.6L587.906 224.198L585.495 218.457L419.93 287.986" stroke="#0E0E0E" stroke-width="0.5"
        stroke-linecap="round"/>
  <path d="M386.947 308.62L377.505 286.136L389.796 280.975" stroke="#0E0E0E" stroke-width="0.5" stroke-linecap="round"/>
  <path d="M401.633 276L395.022 278.777L399.5 289.44" stroke="#0E0E0E" stroke-width="0.5" stroke-linecap="round"/>
  <path d="M412.917 271.268L406.306 274.045L410.843 284.847" stroke="#0E0E0E" stroke-width="0.5"
        stroke-linecap="round"/>
  <path
    d="M574.63 223.114C573.992 219.984 574.295 216.736 575.501 213.778C576.708 210.821 578.765 208.288 581.411 206.499C584.057 204.71 587.174 203.746 590.368 203.728C593.562 203.71 596.69 204.639 599.356 206.398C602.022 208.157 604.107 210.667 605.347 213.61C606.171 215.567 606.602 217.668 606.614 219.791C606.626 221.915 606.219 224.02 605.416 225.986C604.614 227.952 603.432 229.741 601.938 231.25C600.443 232.759 598.666 233.958 596.708 234.78C593.762 236.015 590.517 236.35 587.381 235.741C584.246 235.133 581.361 233.608 579.091 231.361C578.359 230.636 577.702 229.847 577.126 229.005M579.485 220.716C579.357 219.022 579.622 217.315 580.269 215.73C581.091 213.716 582.493 211.99 584.295 210.772C586.098 209.555 588.222 208.899 590.397 208.888C592.573 208.877 594.703 209.511 596.518 210.711C598.333 211.911 599.751 213.621 600.594 215.627C601.723 218.316 601.738 221.344 600.636 224.044C599.534 226.744 597.404 228.896 594.716 230.026C592.71 230.87 590.5 231.099 588.364 230.686C586.227 230.273 584.262 229.235 582.716 227.705C582.465 227.457 582.227 227.197 582.002 226.928"
    stroke="#0E0E0E" stroke-width="0.5" stroke-linecap="round"/>
  <path
    d="M397.302 136.946C400.33 134.284 402.448 130.808 403.379 126.973C404.31 123.139 404.011 119.124 402.52 115.455C401.029 111.786 398.417 108.634 395.024 106.411C391.632 104.189 387.618 103 383.509 103C379.399 103 375.385 104.189 371.993 106.411C368.601 108.634 365.988 111.786 364.497 115.455C363.006 119.124 362.707 123.139 363.638 126.973C364.569 130.808 366.687 134.284 369.715 136.946L354 198H413L397.302 136.946Z"
    fill="#0E0E0E"/>
</svg>
