<svg width="48" height="48" viewBox="0 0 48 48" fill="none" xmlns="http://www.w3.org/2000/svg">
<path d="M39.907 20.948C39.907 13.5736 35.6835 7.18136 29.5098 4.0295C26.896 2.69549 23.9314 1.94211 20.7907 1.9422C10.233 1.9422 1.67444 10.4512 1.67444 20.948C1.67444 24.0703 2.4323 27.0179 3.77396 29.6167C6.94414 35.7546 13.3736 39.9538 20.7908 39.9538C31.3485 39.9538 39.907 31.4448 39.907 20.948Z" class="svg_primaryColorTint89"/>
<path d="M48 28.9942C48 21.6198 43.7766 15.2276 37.6028 12.0757C34.989 10.7417 32.0244 9.98831 28.8837 9.9884C18.326 9.9884 9.76746 18.4974 9.76746 28.9942C9.76746 32.1165 10.5253 35.0641 11.867 37.6629C15.0372 43.8008 21.4666 48 28.8838 48C39.4415 48 48 39.491 48 28.9942Z" class="svg_primaryColorTint89"/>
<path d="M9.27101 12.2279C10.0408 12.9942 10.0408 14.2348 9.27101 15.0002C8.50121 15.7655 7.2534 15.7655 6.4836 15.0002C5.7138 14.2348 5.7138 12.9942 6.4836 12.2279C7.2534 11.4625 8.50121 11.4625 9.27101 12.2279Z" class="svg_primaryColor"/>
<path d="M33.9212 33.0715C35.0094 33.0715 35.8925 33.9485 35.8925 35.0314C35.8925 36.1142 35.0093 36.9912 33.9212 36.9912C32.8321 36.9912 31.95 36.1142 31.95 35.0314C31.95 33.9485 32.832 33.0715 33.9212 33.0715Z" class="svg_primaryColor"/>
<path d="M30.5926 15.9908C32.7699 15.9908 34.5352 17.7459 34.5352 19.9106C34.5352 22.0753 32.7699 23.8304 30.5926 23.8304C28.4143 23.8304 26.65 22.0753 26.65 19.9106C26.65 17.7459 28.4143 15.9908 30.5926 15.9908Z" class="svg_primaryColor"/>
<path d="M15.8679 20.8221C16.957 20.8221 17.8392 21.6992 17.8392 22.782C17.8392 23.8648 16.957 24.7419 15.8679 24.7419C14.7788 24.7419 13.8966 23.8648 13.8966 22.782C13.8966 21.6992 14.7788 20.8221 15.8679 20.8221Z" class="svg_primaryColor"/>
<path d="M21.7396 38.0172C23.917 38.0172 25.6821 36.2623 25.6821 34.0974C25.6821 31.9326 23.917 30.1777 21.7396 30.1777C19.5621 30.1777 17.797 31.9326 17.797 34.0974C17.797 36.2623 19.5621 38.0172 21.7396 38.0172Z" class="svg_primaryColor"/>
<path d="M38.4552 26.0834C39.5434 26.0834 40.4264 26.9605 40.4264 28.0433C40.4264 29.1261 39.5433 30.0032 38.4552 30.0032C37.3661 30.0032 36.4839 29.1261 36.4839 28.0433C36.4839 26.9605 37.3661 26.0834 38.4552 26.0834Z" class="svg_primaryColor"/>
<path d="M18.8131 6.8156C19.2213 6.8156 19.5523 6.48655 19.5523 6.08065C19.5523 5.67475 19.2213 5.3457 18.8131 5.3457C18.4048 5.3457 18.0739 5.67475 18.0739 6.08065C18.0739 6.48655 18.4048 6.8156 18.8131 6.8156Z" class="cookie_border_color"/>
<path d="M22.7192 20.6457C23.1275 20.6457 23.4584 20.3166 23.4584 19.9107C23.4584 19.5048 23.1275 19.1758 22.7192 19.1758C22.3109 19.1758 21.98 19.5048 21.98 19.9107C21.98 20.3166 22.3109 20.6457 22.7192 20.6457Z" class="cookie_border_color"/>
<path d="M28.8676 29.8885C29.2759 29.8885 29.6069 29.5595 29.6069 29.1536C29.6069 28.7477 29.2759 28.4186 28.8676 28.4186C28.4594 28.4186 28.1284 28.7477 28.1284 29.1536C28.1284 29.5595 28.4594 29.8885 28.8676 29.8885Z" class="cookie_border_color"/>
<path d="M9.79402 11.7085C9.28209 11.1996 8.60141 10.9192 7.87739 10.9192C7.15337 10.9192 6.47278 11.1995 5.96076 11.7085C4.90387 12.7593 4.90387 14.469 5.96076 15.5198C6.47269 16.0287 7.15337 16.3091 7.87739 16.3091C8.60141 16.3091 9.282 16.0288 9.79402 15.5198C10.8509 14.469 10.8509 12.7593 9.79402 11.7085ZM8.74862 14.4804C8.51591 14.7118 8.20656 14.8391 7.87739 14.8391C7.54823 14.8391 7.23888 14.7118 7.00616 14.4804C6.52572 14.0027 6.52572 13.2257 7.00616 12.748C7.23888 12.5167 7.54823 12.3893 7.87739 12.3893C8.20656 12.3893 8.51591 12.5167 8.74862 12.748C9.22898 13.2256 9.22898 14.0027 8.74862 14.4804Z" class="cookie_border_color"/>
<path d="M1.47844 19.0534C1.47844 9.35792 9.41224 1.46998 19.1641 1.46998C24.0462 1.46998 28.5915 3.40477 31.9626 6.91811C32.2444 7.21191 32.7124 7.22289 33.0078 6.94258C33.3032 6.66246 33.3142 6.1972 33.0324 5.9034C31.2614 4.05767 29.1764 2.60586 26.8355 1.58809C24.4118 0.534252 21.8307 0 19.1642 0C8.59702 0 0 8.54732 0 19.0534C0 21.7046 0.537449 24.2707 1.59733 26.6805C2.62101 29.0079 4.08136 31.0808 5.93782 32.8415C6.08096 32.9774 6.26454 33.0447 6.44803 33.0447C6.64311 33.0447 6.83773 32.9684 6.98304 32.817C7.26479 32.5233 7.25375 32.0581 6.95843 31.7778C3.42465 28.4263 1.47844 23.9073 1.47844 19.0534Z" class="cookie_border_color"/>
<path d="M35.274 19.9109C35.274 17.3444 33.1737 15.2561 30.5921 15.2561C28.0106 15.2561 25.9103 17.3443 25.9103 19.9109C25.9103 22.4776 28.0106 24.5657 30.5921 24.5657C33.1737 24.5657 35.274 22.4775 35.274 19.9109ZM30.5922 23.0957C28.8259 23.0957 27.3889 21.667 27.3889 19.9109C27.3889 18.1548 28.8259 16.7261 30.5922 16.7261C32.3586 16.7261 33.7956 18.1548 33.7956 19.9109C33.7956 21.667 32.3586 23.0957 30.5922 23.0957Z" class="cookie_border_color"/>
<path d="M21.7392 29.443C19.1578 29.443 17.0574 31.5312 17.0574 34.0978C17.0574 36.6644 19.1577 38.7526 21.7392 38.7526C24.3208 38.7526 26.4211 36.6644 26.4211 34.0978C26.4211 31.5312 24.3208 29.443 21.7392 29.443ZM21.7392 37.2826C19.973 37.2826 18.5359 35.8539 18.5359 34.0978C18.5359 32.3417 19.973 30.913 21.7392 30.913C23.5056 30.913 24.9426 32.3417 24.9426 34.0978C24.9426 35.8539 23.5057 37.2826 21.7392 37.2826Z" class="cookie_border_color"/>
<path d="M33.9207 32.3364C32.4262 32.3364 31.2102 33.5453 31.2102 35.0312C31.2102 36.5171 32.4262 37.726 33.9207 37.726C35.4153 37.726 36.6312 36.5171 36.6312 35.0312C36.6312 33.5453 35.4153 32.3364 33.9207 32.3364ZM33.9207 36.2562C33.2413 36.2562 32.6886 35.7068 32.6886 35.0313C32.6886 34.3558 33.2413 33.8063 33.9207 33.8063C34.6001 33.8063 35.1528 34.3558 35.1528 35.0313C35.1528 35.7068 34.6 36.2562 33.9207 36.2562Z" class="cookie_border_color"/>
<path d="M38.4548 25.3484C36.9602 25.3484 35.7443 26.5574 35.7443 28.0433C35.7443 29.5292 36.9602 30.7382 38.4548 30.7382C39.9493 30.7382 41.1653 29.5293 41.1653 28.0434C41.1653 26.5575 39.9493 25.3484 38.4548 25.3484ZM38.4548 29.2683C37.7753 29.2683 37.2227 28.7189 37.2227 28.0434C37.2227 27.3679 37.7753 26.8184 38.4548 26.8184C39.1342 26.8184 39.6868 27.3679 39.6868 28.0434C39.6868 28.7189 39.1341 29.2683 38.4548 29.2683Z" class="cookie_border_color"/>
<path d="M18.5786 22.7819C18.5786 21.296 17.3627 20.087 15.8681 20.087C14.3735 20.087 13.1576 21.296 13.1576 22.7819C13.1576 24.2678 14.3735 25.4767 15.8681 25.4767C17.3627 25.4767 18.5786 24.2679 18.5786 22.7819ZM15.868 24.0068C15.1886 24.0068 14.6359 23.4574 14.6359 22.7819C14.6359 22.1064 15.1886 21.5569 15.868 21.5569C16.5474 21.5569 17.1001 22.1064 17.1001 22.7819C17.1001 23.4574 16.5473 24.0068 15.868 24.0068Z" class="cookie_border_color"/>
<path d="M27.1613 7.95093C16.5942 7.95093 7.99707 16.4982 7.99707 27.0044C7.99716 37.5105 16.5942 46.0578 27.1613 46.0578C37.7286 46.0578 46.3256 37.5105 46.3256 27.0043C46.3256 16.4982 37.7286 7.95093 27.1613 7.95093ZM27.1613 44.5879C17.4094 44.5879 9.4756 36.7 9.4756 27.0044C9.4756 17.3089 17.4094 9.42091 27.1613 9.42091C36.9133 9.421 44.8471 17.3089 44.8471 27.0044C44.8472 36.7 36.9134 44.5879 27.1613 44.5879Z" class="cookie_border_color"/>
</svg>
